<mxfile host="app.diagrams.net" modified="2022-04-20T11:35:38.668Z" agent="5.0 (Macintosh; Intel Mac OS X 10_15_7) AppleWebKit/605.1.15 (KHTML, like Gecko) Version/15.4 Safari/605.1.15" etag="CFd5sZmDYAGkXq7BMdzD" version="17.4.6" type="github">
  <diagram id="oXpOpRLaq8jMFIq08BAt" name="Page-1">
    <mxGraphModel dx="946" dy="645" grid="1" gridSize="10" guides="1" tooltips="1" connect="1" arrows="1" fold="1" page="1" pageScale="1" pageWidth="827" pageHeight="1169" math="0" shadow="0">
      <root>
        <mxCell id="0" />
        <mxCell id="1" parent="0" />
        <mxCell id="mkcyjXhvuMrbdka2cAON-4" value="" style="edgeStyle=orthogonalEdgeStyle;rounded=0;orthogonalLoop=1;jettySize=auto;html=1;" edge="1" parent="1" source="mkcyjXhvuMrbdka2cAON-1" target="mkcyjXhvuMrbdka2cAON-2">
          <mxGeometry relative="1" as="geometry" />
        </mxCell>
        <mxCell id="mkcyjXhvuMrbdka2cAON-1" value="" style="shape=image;html=1;verticalAlign=top;verticalLabelPosition=bottom;labelBackgroundColor=#ffffff;imageAspect=0;aspect=fixed;image=https://cdn1.iconfinder.com/data/icons/cryptocurrency-blockchain-fintech-free/32/Cryptocurrency_SHA-256-41-128.png" vertex="1" parent="1">
          <mxGeometry x="30" y="200" width="70" height="70" as="geometry" />
        </mxCell>
        <mxCell id="mkcyjXhvuMrbdka2cAON-7" value="" style="edgeStyle=orthogonalEdgeStyle;rounded=0;orthogonalLoop=1;jettySize=auto;html=1;" edge="1" parent="1" source="mkcyjXhvuMrbdka2cAON-2" target="mkcyjXhvuMrbdka2cAON-6">
          <mxGeometry relative="1" as="geometry" />
        </mxCell>
        <mxCell id="mkcyjXhvuMrbdka2cAON-15" value="" style="edgeStyle=orthogonalEdgeStyle;rounded=0;orthogonalLoop=1;jettySize=auto;html=1;" edge="1" parent="1" source="mkcyjXhvuMrbdka2cAON-2" target="mkcyjXhvuMrbdka2cAON-8">
          <mxGeometry relative="1" as="geometry" />
        </mxCell>
        <mxCell id="mkcyjXhvuMrbdka2cAON-2" value="" style="dashed=0;outlineConnect=0;html=1;align=center;labelPosition=center;verticalLabelPosition=bottom;verticalAlign=top;shape=mxgraph.webicons.github;gradientColor=#DFDEDE" vertex="1" parent="1">
          <mxGeometry x="150" y="200" width="80" height="70" as="geometry" />
        </mxCell>
        <mxCell id="mkcyjXhvuMrbdka2cAON-3" value="Engineer" style="text;html=1;resizable=0;autosize=1;align=center;verticalAlign=middle;points=[];fillColor=none;strokeColor=none;rounded=0;" vertex="1" parent="1">
          <mxGeometry x="35" y="280" width="60" height="20" as="geometry" />
        </mxCell>
        <mxCell id="mkcyjXhvuMrbdka2cAON-5" value="Github" style="text;html=1;resizable=0;autosize=1;align=center;verticalAlign=middle;points=[];fillColor=none;strokeColor=none;rounded=0;" vertex="1" parent="1">
          <mxGeometry x="165" y="280" width="50" height="20" as="geometry" />
        </mxCell>
        <mxCell id="mkcyjXhvuMrbdka2cAON-6" value="Code Review&lt;br&gt;" style="whiteSpace=wrap;html=1;verticalAlign=top;dashed=0;fillColor=#f5f5f5;fontColor=#333333;strokeColor=#666666;" vertex="1" parent="1">
          <mxGeometry x="130.5" y="90" width="119" height="25" as="geometry" />
        </mxCell>
        <mxCell id="mkcyjXhvuMrbdka2cAON-17" value="" style="edgeStyle=orthogonalEdgeStyle;rounded=0;orthogonalLoop=1;jettySize=auto;html=1;" edge="1" parent="1" source="mkcyjXhvuMrbdka2cAON-8" target="mkcyjXhvuMrbdka2cAON-16">
          <mxGeometry relative="1" as="geometry" />
        </mxCell>
        <mxCell id="mkcyjXhvuMrbdka2cAON-50" value="" style="edgeStyle=orthogonalEdgeStyle;rounded=0;orthogonalLoop=1;jettySize=auto;html=1;" edge="1" parent="1" source="mkcyjXhvuMrbdka2cAON-8" target="mkcyjXhvuMrbdka2cAON-13">
          <mxGeometry relative="1" as="geometry" />
        </mxCell>
        <mxCell id="mkcyjXhvuMrbdka2cAON-8" value="" style="shape=image;verticalLabelPosition=bottom;verticalAlign=top;imageAspect=0;aspect=fixed;image=data:image/png,iVBORw0KGgoAAAANSUhEUgAAARgAAAEYCAYAAACHjumMAAAydklEQVR4nOydDYgdV3bnT82IpRIEWwKz8wxGLtUYRmaGdos4WGJadDWuME9kBrUYZ2WPO0hiJm2JJFgGx6omztZ9xLNd9jpIZj1Y7jhYYtuxRBzUghn0ZrdCV6c1SCYe1O51kMKa55IwzAsYpnZXJJVFUMvtvs9qtfrj3Vv31sd75wdNHM2rW7f7X+/Uueeee84W6AFMPzUAYDf7+QYA1Og/s5+1SADgKvvvGwDwzwDQjFztao7TRpCeRyt6AjwYjrcTAB7TLXtQt2z634+wH13ibT4HgE8BIEpa4adJK/wEAD6Og0Yk8R4I0heU3sBQo2I45AQA2Bt4JHmwAACnIlc7W+AcEKRSlM7A6NbwVt2yn9Qt26Y/APAtACjTUi6my6qkFQZJK/xZ0go/Slpzd4qeFIKUkVIZGNNPDwPAJIuhVAXq2bwQuVpY9EQQpGwUamB0a3iLbtlDhkMOAcDTkmMpeXM1Dsg5AJiLg8ZC0ZNBkDJQmIFhOz/vA0C9qDko5EzkakeKngSCFM1Xirip4Xi7AeCzHjUulMOmn84ajldkUBpBCic3D4Yth75vOKTeA8uhbvkCAN5pT9k/SVpznxc9GQTJm9wMjOmn7zPD0o+0AWBf5GoYm0H6CuVLpNr47PdNP/2sj40LsF2xa2zZ9O2iJ4MgeaHUgzH99CQAHFd5jw1YeRxgNTsL3Aqn83omcrWZgu6PILmhxMAYjmcaDnlLcRA3BoBP6E8ckPaKM0VRt2n9huMZzNDQn68bDnmEGZ9B1VnDSSt8M2mFfxIHjUTlfRCkSKQbGJYs967scVewAACNPDwA00+fZx6YKmMTxQHZEweNtqLxEaRQpBoYw/G+YzikKXPMFVDDMhG5mqrx18X000MAQBQZmtORqx1TMC6CFI4UA7NiC/qUxNgGXTo0k1b406QV/m0cNGJJ4wpjON6w4ZBRVhbicYlnpGbigDQwAxjpNaQYGLaUOCVjLAZdOhwo8xfO9NM6y0Q2ZI0ZB2RXmX9nBOHlq1kupp7LQyeiPwaAVwDg32WcC/VYgjggL7anRo4lrblSxyXioPEpALxBjeGWbeZ2GZ4bOz3+i7L/7gjSLZk8GMPxDhrO0gG/rNC39kjkaoUvg0Qx/XQSAFwZY6Eng/QKwh4MC+ieBoCtGe7/OQD85/aU/cdf/M2RyhoXWPZo/g4A5nTLTthWt7BHxzyZv01ac7flzhJB8kXIg5G0FR2zLdobGccpHZJ20+jf51HcwkaqDPdRAXZCOKtxoV+aHb1oXGDZm/k5ABxgcSVRDMMhByVOC0FyR8DALGXoZmGmPWXbVY63dEPkajNJK6yzDGNRXjYcz5Y4LQTJFa4lUsazRX17Bsf002vs+IEoI1iSE6kiXXswtfHZ72cxLkkrHOtH40JpT9nfo55bhiEuGY73mMQpIUgudO3BsJILIqny1HPZg7VQMgfHZyJXOyB5SgiilE09GN0a3mL66QVR48I8l743LrAclzmTtELRXJnvmn76nOQpIYhSujAwNl0ajQqO/0x7auRvBa/tSdpTI68CwBmBS7cAwGnW3RJBKsGmSyTTT6lLf1hgbOkuPTv/89yKei0xywKeiwNypkrtXTMsOd3I1V5VMCUEkc6GHgyr/i9S6rLdnrKlpM0bjvckXaKZfvorALjEvKnOF9NgLWU9wyH/y/TT2dr47CEZ91VN0gp/JJgnc5QVykKQ0rOuB8P6Fn0mcFqYehU7ZOS5mH5KqPEQuHSBncYutUeTIeiLfZeQSrCmB6Nbw1sESxF8HgdkjwzjUhufPSloXCiDhkPmTT89UeaYReRqZwBgWuDSw1g8HKkC6xgYe0iwnu6bMtL/TT89qVt21mLhDwGAbzjkepl3X+KA/JnIdYZDfiR/NggilzUNDOsVzctCe8p+O+uEDMf7joJOBG+afnrJcLxhyeNmhi3jRgXiMXWMxSBlZ80YjOmn/8rZeZF+OR6UFHe5kGFbvBsacUD8slXzF4zHYCwGKTX3eTDsQedt6xpKPLyo+nCfZzhkUvE9uGHxGN6g9CgLxiNIKbnHwOjW8FYA4P7yxcFS4anMmH76tMwatxtw3PTT66afero1/FAO9+uKpBW+w3kJ/VtlPd2OIMpYZWDsJwVqy0Zx0LgoaT55BmN3AgCpjYfzpp8qbbLWLUkr/InAZU+zGj0IUjpWGxje5UkSB0Rmtu5uiWN1C/1yflYbn32r6C8qa81yVODSJxVMB0Eyc0+QV6BuidTjAKafprLGysDTkaudL3ICAscIzkWu9ozCKSGIEF96MCwh7Vs8Fyet8KdKZtUdYdIKxzJWjFuLadNP3zcc75BuDfMGu6WQtMIPOC8ZUjQVBMnECgNDTvB2KkxaYaEnpdtTI+9FrvYoAIywIwoy2LIc1yBnauPhBUljcpG0wp9xXvKQ6acqt/YRRIiVMRje+MtCGdq5wvIWbyh44nsz6nTZaDierHa43SJSP6d0SYQIsmRg2PKIN8A5oWZKYkSudjEOyINJKzyVsZr/agYNh/yD6acndGv4AYnjrgsz3Lw1Yw4XtaRDkPXoeDC89V4XIlfL2vdHOnHQaLenRl4AgEclx2aWzjXlvKXd4Py8oVt2aQ92Iv3JkoHRLZu34j3vw58rkatF7Sl7LwAQALgqcWj6Bb7OzjUpPc1MfwcA+ITzsm8qmg6CCNExMDxvvrgK3QGS1twXkas1IlfbQ70PiUPrywcNyWXTT4nheCqXJR9xfv4RRfNAECE6SySeB5P3rVo4katNxAEZAQDZ2+qe4ZBZw/EOsho6UokDwhXsNRzClWaAIKrpCwMDy/GZMHK17wHAEclB4N2GQ87VxsP/JnHMDh9zfr4056oQhPIVdhq3azc/Dkilm7GzU8sqtrSfZrWDZR7W5P1b572djiAb8hWB8z+Vb1gfudr5OCA74oAcFyiRsBGjAHC9Nj4rJQCctELeuaGBQUqFiIH5Z0VzyZU4aERx0HgjDsgeAJDZ97mmW/abMgZKWnMJ59x000+z9MBGEKlQA/MNzmtKXamflzhotCNXG5F8rmnQ9NO3JAV+eeeEXgxSGr7C+0CWvRWIKCvONZ2SNORR3bIflzDOP3F+voiSFwiyJl/hPCJQqjq2KmhP2X8SB6QOAKcB4HaWsXTL/l0JU8K+3khl4TUwMrNiS0nSmrsTB42fR652LA7I72Q5pc3av+TNwwXcE0HWZNPm9/1MHDSoQd2VIe4k49wSrweD5TOR0oAGZhPYuabfZueaPue8PHPAVWK3BgTJHTQwXdA518SWTDxg+QSkr5F+fqYX0a3hrbplf99wyIucl95RNCUEqQRoYDaBpf5fEGwIx7ukWuv+GFNBKssWtvXcrSvfNwWNDMczdMv+QwB4MUMzOBmJe7wGpud3+pDqsIU9kN2+nfsiS9T00+MA4GXtMhkHRMYRBN45/JuEeyKIFLiDvPTNrmYq5cD0U2pYTkpqYSsjSQ7PFiGV5St41mWZ2vjsftNPr7DtaBk0k1Y4J2Ec3sQ5mQc3ESQTWwROR9d6oWRDB+qRGQ4RDeKuRztytX2SxuL1YPBoAVIaqIFpsnhDt3y9F96SrA/1d9jWs8xatknSCkX6S9+Hbg1v5TQwtzExDykTWyJXu2r63beENhzySByUuqnApph+ehAAzikYmnoPR9pTI1K8CN2yeQ3fFzLuiyCy6AR5efI1KrtVbTjeE6af0uXQtOSh20krfDEOyJ7I1WQuUXhr9fTM0hXpDTqJdp9yFIyu5K6G6aeEcynYLU2J8ZZ7MBzC+7fuyVo9SHXpGBieB7NymaWmn54EgOMKhg7jgDyjYNwOXH/rqhdkR3qPpSVS0go/5bnI9NPnlc1IEro1/JDpp57pp9cVGJerSSscjVxthPWRVgVvdTrcQUJKxZIHk7TCT3SLa5eWfmHfUDarjLDC1xcUeFvUQ9gnOc6yJux34J0/bx8lBFFKJ8j7S87rTNNPDymYTyYMx9tp+um7AHBNsnH5AgBIe8r+7TyMC2OS8/NRr9ZLRqrLkgcTB43PDWepTSlPUJEAwFl1U+PD9NPnWB1d2URxQEby/PKyHJ0652Wl9SiR/mXlWSTeavqm4XjDkufDhW4NG4bjPWf66SUAkNKLaAVR0gr/KA7Io3l7BgLFwpM4ICryehAkE9rK/8f0019zHvI7FbnaC7ImY/pp9xl/ywHNREGbDjrmMdZithCYweTxYK5GrrZH4ZQQRIjVBaducH5hi+zBoyof53DkaucVjd0tuHuE9AT3lGtIWmHAef3jpp/yxgo2orBzNEkrPB0HZEfRxoUFqblKRUiqO4Mg0lltYH7GeT31gN43HE9WcesivigRAOxoT40cK3oXxnA86pUdFrj05wqmgyCZWW1gPhJwtw3dsp+VNJ+3JY3TDVdXbD2XYntXt2yRrX9fcbIfggijrf4H009tAJjlHGchcrVdMiZk+ulnORxH8CNXm1B8Dy5YcfFfcbY6iSJX26FwWgiSiftKZkauFgoUjh40/ZQ3MWxNklaocrt1hp14LpVxMRyvxjKPeYzLHQA4onBaCJKZr67z71t1y+YN3g4BwFzSmsu03NiyzfxH3bJ5+w9tBl1CPBO5WiNpzWVuJSKb2ng4L7Bz9Pf091E0JQSRwnpFv4VqyRoOOZhtOktZxW0Fb+bDkavNSB5TCobj2YJb7rhzhJSeNQ1MHDQWAEAk0WzMcLzvZJ1U5GpnklboZxzmRhyQw3FAHoxc7WLWOanAcDzdcIhIjZokDsh7CqaEIFK5L8i7EtNPZwWLYR+Q4TGYfjoKAO8L9HieiQPyTBw0kqxzUAnLeRHZlm5Eriar+wGCKGO9GEyHOd2yxwDgNznHHdUt+/LtX569mWFu1JO6QY2Fbtn/jxmZBzZY1n0BAP89Dsjx9tTIj5PWXKn7QtfGZ3+4ZZv5nwQu/ShyNVlpAQiilA09GFh+y04CgCsw9o3I1R4Vm9baGI5nGg6hb/zHWLYr9VA+BICFOCDNsnssHVi/6esCnhksL/sapTnFjiAbsamB0a3hh2rj4T8INlxbaE/Z3yvjzk1R1MZnv61b9geCf8+wPWXvS1pzlTCkCLKpgYG71dWuCd5jJnK1A4LX9hwZEgnbkas9qGBKCKKMrnpTsypuotuio6afigQyew4W1BXNUi7lNjuCbMRmQd6VfKpb9g/WKPHQDaO6ZSe3f3n2FwLXVh66LHrg9878fYb2tFF7yj5y59c3/4/kqSGIUrpaInVg28YXMtzvTORqfZXezgK6VwRjLsCykHdgS1ikinS1ROoQudpM0gqzlKY8bPrpZ7Xx2SczjFEZauOzP2S7RaLG5dM4ILvQuCBVhcvAwPJhxD/J2EHQ1C37p70clzEcTzf99F3dst8R2YruEAfkxaJr1CBIFnhiMEuwBLbzumVvBYDHBe+7BQBGDYc8AgDXktZcz7yhDcezDYf8Jf39MgxzGwBeak+NYL4LUmm4YjCrYY3ks3yROoyW9bxQtxiOVzMccklSreDS1atBEBG4l0griQMiq1zAuSovmUw/NQyHvC/JuMRxQLDHEdITcC+RVpK05toAcFG3bJudExKls2Q6rFu2vmWb+Y9VyFY1HG/QcMiJLdvMcwDwiIQhL8cBGWYlKxCk8mRaInVgXzTRTN/1OBq5Wp41ernIcBJ6PWLW5A2NC9IzSDEwcNfI0GXCTlljsu6KH7BuBwtFFrc2HM/ULft3dcv+Lqs+x9VaZANuA8CbdFmExgXpNaQZGLgb6Lwu8cu3mjOsFkpuW7fsHNakQK/objkeuRrGXJCeRKqBgbtG5iAAvJwxLrMRnwDAR3Gw1LD/YwBoJ60wyhK30a3hrbplPwIA3zAcMsjODO1W2OHgU5bnUundMwTZCOkGpgPLB+Ftf5KVkLW//acV/Z0WVmbCstR9k3lZ1JA8zP6vqla0axHHAdmFSXRIr6PMwMDdHkuXsmSz9iDUqJQi/Z/pY68o4LV7Ha2osW6z4l4Ra7Z/o4Ap9x1V10ipgYFlT+YxwyEEAL4reBK7V6Diz7Sn7B/nXYCL9V36tuGQx5mntlPC0i9mS9VP4oBcpQ82K3GKCNCrGik3MB1MP30OAE7ndb+SEUauNpL3Tdly8KSkbOtuoA80waB19/S6RrkZGFi20jsNh+wHgKM5tIctAx/FAXkzaYXn80ocNBxvULfsZ3XLfqrAvzF9iD+IA/JB0grnqpA0mSf9pFGuBqaD4XiG4ZCTkhPVygQV69W8W4soSP6TAXXN95Uh5lQG+k2jQgxMB8Px6JrzRyzHRLRmSlm4AwCX6XIoDsh7cdD4NI+bUmOtW/bzumUfV5h/lBVqcK8mrfD19tTIz4qeTN70s0aFGpgOKzya0RILsBERAByJXC3Xdq6mn9IH1qvY36wSTfFk0e8alcLAdDD9lIrwFgA8XfRcOCiktILpp88DwKm87yuJviidihqVzMB0MBzPBIAnDYc4ADAEAA8VPSdGwvINFuKAUG/l53mfj9Kt4a/XxsNXAOCpim/7X40DcjwOGh8WPRHZoEZ3KaWBWQ0rNj7MgmNFuJp0CfRGHJBzRR5IZB7etR7agaMGew9ri9MToEb3UgkD00G3hnXdsncCwDeZdyMzGn+b9be+QQ1KHJA281Y+LkNKf218dr9u2ad7IBi+GvoAN9tT9jFWX6iyoEb3UykDsxKWQs171ulqJ1oOAP/G/i1cfV6pbLAT3VdyOHIRrVHQvSa5BMd6VLoDKGq0Nn1lYOKA1OOg8XN1s5KLbg1vrY2Hf84SE2U9uJ04UsTSx5dOo2+WQs5S2elD/DXdsgfpD4uPbZU0L2BHKSrlyaBGG9NvBsaNg8ar6mYlF9NPTwCAL2k4+tCeiwPSkLXkY+kFxwHgeYmxsUp5MqjRxvSVgQGA05GrHVM0JamwYGGWpm0rocu/ZyJXa0oY6z7YEZC3MrTGXUllAr+o0eYaZeoqUEGcoifQDbo1nLXdbIerSSs8HAfkQVUPLix5ho0bkauNxAHZkbRCnz2AotBlxhXD8Z6QOEXpoEbdadRvHgxlJO+MW14knFdps7MlhXgB7M1+idUuEeVq5Gp7JE5LKqjREptq1G8eDOWkbg2XtgCW6aeHAGBM8PI7AHCmPWUXusSIXC1uT9nfAwDCtv9F2E2/xIbjlU4r1OhLNtWoHw3MoG7Z3yl6EmtB18mssLlo9ufLkasdSVpzheftJK25LyJXa8QBEf0iUg6zThWlATW6jw016kcDA4ZDynZcfgnDIX8qeOkXAHC8PWX/heQpZSYOGhfjgFA3ekZwiNHa+Ox+ydMSBjVak3U16scYTIddZdqpYJXNPhO5Ng7I4TholL5RfoZe5oVUBFwNarQha2rUlx4M42TRE1jFu4LXUSN5XvJclBAHRDQHaTcLShYNarQ+a2rUzwbGptZat4ZlZjkKYfqpJ5CfcAcAfOraVqW2Shw0rsYBGRUIKurUWy0yOI8abcqaGvWzgYHltWP4wyInwEpTiJTW/GnkahNVeXA7sEZzrwtcOqhb9rCCKW0KatQ192nU7waG4hqOlyUXIBO6ZYsEMOM4IC8rmE4utKfsn7ADp1wYDnlKzYw2BjXqntUaoYEBqBkOuWI4Xp6dHb9Et2yRgNqROGj8o4Lp5ELSmvsCAPYJZJMWZWBQo+65R6N+3kVazQ1WhzS3nSV2PuQa5yncZuRq+xROq2tW1Od5mP3T/05a4UdJa66r9XttfHZSt2yX87bH8+y7hBpl06jK5fxk03mQduVlZAyHnOA94h8HpBTN69iOwewaPb0jADjQTQpA0grfFnh4CQDkaGBQoywa4RJpFYZDRLciRRBxvecUzIMLVnfk2hoPLrBSkbPdLDlZSQLec2EGy6bNC9Qog0ZoYO5n0PTTX5l+6unW8AOqbsJOovLmdhzPu8j4auiDazjkbzapOWsYDnmrm3NEcUCOsVIFPORy0ho1WiaLRmhg1oZaf1IbD+cVJnjxBpXbRfd8Nv100HDIdVYlbTN2Gw7ZtP0Mq9LG9XsZDslr1w81yqgRGpiNoW7er2rjs2/J3mUyHMI7XiDz/rzUxme/z+qf8Bhcr5sPxQE5xZnY9S2OzwqDGt1FVCM0MJuj65Z91HDINdNPL0j0aLjiCHFALku6Lzf0rahb9rRAzdmuWnewJQXP75eLgUGN7iKqERoYPkYB4Nemn16vjc/+V8PxDmYIOPJ+SQppULbirSiSpt918e6kFfLs3Bmmn+YR6EWNViCiEW5Ti7FTt2z680ew7EoDO+r+MTvY1k1AjCuAnGd+TgfWikPkrdjhXLcfpA+vbnEd9amzHlYqQY1WIKJRPxmYBgDsFwjcdcuo4JZmN+T+4LJtztmMrTh4AoP/zDn2SdNPy3QiHjW6H6OfDAy0p+yna+PhOYVGRhVd5yEYjrdbt+z9rCeOzrypG3FAprtNXV+xzSkcb0pa4en21AhP1TbV3ohqUKP7eaKfjgo0IlcjkK2oTlEciFxt02pjpp8+DwCn1vmfu2o1wVzu2Yw9dBZEShSYfppmuGfRoEZr3KMvg7ztKfv3WTpz4XVRu2TTmI7pp3UAeGWDjyy1mmABwTUR3OZczQcZ6p9U2YtBje5nsC8NTNKaux25GvVodmSoQ5obm7VZYdmYl7poEarrlj3N3oD3kGGbcyX0rfj7GeqfVKZl7GpQo7XpSwOzkvaU/UwcLBUB/6TouWTg2xyfXXpLmn56slPNL+M2J7AErONVqtxWAH2pUV8Fedciac0lSWvuLACcNxwySUUoek4CPMT5efqQHq+NL710z2bc5gTWiqPQFPkK0Jca9b0H04Fa9cjVXsjYrU8JCs9DHZWwzUld7rclzqmSoEZrgwZmFZGrnY0Dso0VPn5H4BSpCjbbVv9UcFy9wGDhWnSVtl5SUKM1QAOzBnHQiOOgcTFytT+IXG0b82qKNDSbifrLAuaXNVi4FlU2MKjR/YRoYLqAejXU0MQBGYwDQl1WHwB+yra57+QwhQ3rn9AHKA7Ivhx3YWS/FSHnIlIqQI3uJ+77IC8PcdD4GAA+joPGl/9mOJ7Oal8MMlf2sS5dWp5DHfUu5naVrtcNh6jedlfxVgRWg4eHKIc8JtToXng1+hgNTEaW30yNkLesoOmn/7eLnIgvP244Xi0OGhu+/Vg/m1HDWaoJy/swbMZtAHg5DsjbirY5H+P8/JHNck+yghrdB69GIRqY4vics94IdcEvbvYh9gCDgrek0m1O3ip1qo0LAzVagYhGGIMpDt61eNfBNfYAn+Gf0rrksc3JEzzM64gHanQv3BqhgSkIzuI99O3BVYgjcrUjbKs9a1BRerBwNaw1K88J91zOLKFGdxHVCA1MQfA+vN0EEVdD35Js10sUVcHCezAc4nEmkuVSewU1uouoRmhgioO3vKJu+ulbvDdhD7DIW1L5WxHunjDetLL9SuKAfKRuRveAGmXUCA1MQbBWELyxhKPMVeW9F+9b8kzkar+n/q24dML4fYE0+F8omtI9oEbZNUIDUyy8LTlBt+wfityoy7dkm34mcrUjIvfgRbfsgwJp8DObbQVLBjXKoBEamAKJXO08r1vcKTQuAnuAR9Z5K8dxQA50tlDzQLdskdjDCwqmsi6oUTaN0MAUz1XOzxumnxLRm1G3nxXaOgAAp1nBrWPLRyEavHMRhhVU4u3QGEWuVkQVQtSoe+7RCBPtCiZphTO6ZfPWB/Zq47Pz7amRvxO9L6sfW0g1P90aNll1Ny6SVviBmhltel/UqEtWa4QeTMEkrfC8yHW6Zb8ufzb5UBsPPZE0+aQVvqdmRpveFzXqktUaoYEpGLYLcJhVlOdh0PTTC6w3TiXQreEtpp+eAIAxgcvPFNHYDFAjHu7TCA1MCYhc7SwAvCpw6ajhkOtVeYBr4+EfslIXvEvzOK9dk/VAjTZlTY3QwJSEOCC+YOFxw3DI35T5AV4uaeEdEtnyhWW3e70+QrmCGq3PehphkLckMDf8dcMhIgfghuhbEgAezTlHZFNYvZwrGbppxkkrLEVBcdRoXdbVCD2YcnExQ1lF+pbkTlNXDTvDkqVVbyMOGmWoi9wBNbqfdTVCA1MilmsBL5VVFH2AR00/vVYbn31S8tS4MRzvm6xF74uCQ9wBgOORq5ViedQBNbqHTTVCA1MyWCJVli/VoG7ZQZZEr6yYfjpqOOQy6/8tugz/oKy9llCjL9lUIzQwJaQ9Zf+FhAQrz/TTX9fGZ/9c5PAdL4bjGYbj7Tf99BIAXMjYaiNqT9kvS5yedFCj7jTSMtygUEw/tVlDqm5pRK5W2BtDBOpKZ1wbr+R05GrHJI11D6afPp/xjb6SNgA8GrlameIu64IabQwamBKjW8PfqI2HocTi0AkANOOAhOww3YciOxqG49Ev1BOGQ4YAwJE5v6QVPt2eGsntMF9WUKONQQNTclhL0lmJb8nV0Ie4yYor0f9eWPlmMv10N3s4h1kbD1XzoF+sPZGrFZKtmwXUaH3QwFQA9gBfV9DmokycYr3BKwlqtDYY5K0A9G3VnrLtvGrR5gx1/0l7yv6zoieSBdRobdDAVISkNfdPkavtKur4viJusGBhI2nN3S56MllBje4HDUzFaE/Zv0/fJgU348/KHQA4056y91Vlt4gH1OguaGAqBn2L0LdJxmzSovlR5GpHktZcEdXplIMa3QUPO1YUlk26AwD2Gw55EQC+VfScumA6DsiPWbX+ngc1QgNTadgBs7MAcN5wiAsAJwTaS+RByJrV96THshH9rhFuU/cQpp8ektzvWAaELheKnkRZ6DeNMAbTQ0SudjYOyG8krfAw28koou5IAgBXk1b4YhyQHWhc7qXfNEIPpscx/fQgK4Go+jBdvNxwi7zaLzEWWfSyRhiD6XFY47DzhuPtBIAndMsepD8s4/QhANgqMOwXrHTkjTggC8sN2Bu8fZwRRi9rhB5Mn8Oaa+1kP/9+jXMsEQDcZP83ilwtLGiqfUuVNUIPps9hB9d6Mb29Z6iyRhjkRRBEGWhgEARRBhoYBEGUgQYGQRBloIFBEEQZaGAQBFEGGhgEQZSBBgZBEGWggUEQRBloYBAEUQYeFehzqnzOpV+YaPJpNFkvj0ZoYPoEWSd1TT+FspzU7TWGxpY12j5gDz48IK7RRPNejeanlzW6PI2nqbsGT1N3Ry/XGukVJpr5ajQ/TV69PJ2PRv1kYJQ1Fi8ThuPpumUf1C17FAB2F9BpsFMtbSZphRfjoNF3dXg3Y2jM07cP2AcfHihWo5uL4cytxfDi5Wl1GlXZwBgA8GuOS8LI1UYUTqlw+q3eaxWZaJZTo8m6Go0qa2Bg+QuVcnw8jlxtm8LpFAb1WvqxYn2VoF7L3rHyazRZl6vRV2UOljeGQ45yBMCoqD9JWnP/onhauWE4nkGXQ4ZD6BvxP5Y4aG8CwHHDIY8AwPWkNfdF0RPKi6Exz6DLob1j1dBo79iyRrcW5WhUdQ/m2hpbdusSB2QPa4ZVeQzH22045BL9z6LnIsDhyNXOFj0J1QyNebv3jlVXo8l6do2qnmjH6849pmgeuaFbw1tNP/UqbFwo75h++q5uDaveNSmE7QPDWyeaqVdh40J5Z6KZvrt9IJtGVfdgJgHA5bik8jtJpp9eAIDRouchiRsAsKfXGuBPNHtPo8m6mEaV9mDigPDu5e9WNBXl6NbwN9iSsFceXGCZqddNPz1BPbOiJ5OV7QPD35ho9qZGE830BPXMeC+utAdjON6g4ZBrnJftqNpuBtuSv15AvkSenIpc7YWiJyHKRLM/NJqs82lUaQ9GIAYDVXu7MOMyq/DBpX/D0wBwBABGAGBb5Gpa54f92wH6cClunXGUnYuqHMy45KrRZF3TOj95asTORXVNpT0YWP4CXgKAOsclcXvK3pG05kq/7qfLotp4GEp8cBMAaMYBCdlD+2EcNLh7I1PPEQCeMBwyBACOzPklrfDp9tTIRUnjKYcui559Tb5G89N3Nbo8za/R0NiyRnvH5Gt0czF8+q9f6k6jXjAw1CO5wHNNHJDDcdAo/TYp7zb8JigLcJt++jx7e8qAfpkerUrgl8VcpGk0WVej0URTvkbdBH6rvkSCyNVmAIArt8VwSKmXSWwr+oKEBzdOWuErcUB2qNw9i1ztjTgg2+Jg6e/azDgcfdNe063hr0uanhLYVrQUjW4uhq/MT5MdqowLZbKuvTE/TbbNT8vTaPvA5hpV3oOBuzVNeIO9u1hLztJh+qkHAFlPfhd2epx5le9mzAE5F7naMxKnJZWJphyNJuvFaDTRlKPRZH1jjSrvwcDd3r2fcF52wXC80iV6GY63GwCOZxhiIWmFTpGlKahXGQdLa3/qXd4RHOYptvQqHUNj2TW6uRg6RRkXWPZoZuans2vEll7r0hMeDIi/9aM4II/GQSNRNC0uDMczDId8luGtMhO52gHJ08qEQDLkal6IXE1W7CAzQ2OesXcsm0aT9XJpNNHMrtFkfW2NesKDgeXArchyh3owwwqmI8r+DA9uHAekdFnKcUAaGbdOPWp4JU4pK5k0mp8un0bz09k1ooZ3rf+h0qepV3Fz628d/i7vdpxu2Y8AwHtJa07UTZQCK7lwBgD+g8Dll+OADItsOauG/V3PJq3wU92yqUv+m5xD6HSY2788O6doil3DSi4IazQ/TYZFtpxVc2txWaNbi+GnDw+Ia/Q//8f9GvXMEgmW3XHqkXwmcGnhSwvTT+nyzhO4NGbLvNI9uKvJsJ1dilo+E01xjeanyaNlNC6rybCdHU/W79eoZ5ZIsBxcjFjQipfR2vhsYQFFVonuhMClM1UxLpT2lP0Tttbn9RYN00/fVTStrmCV6IQ0qopxobz3krhGE837NeopDwaWlxq24RCeWr0dEnayN9eta7Y0+leBSxciV9ulYErKYcbiMO91cUB2xUEj99QCtjQS0miyXk2NmLHg1mh+muy6PH1Xo57yYGBpzR9eZuc2eKHryCu18dnvK5jW+je17IMi1yWt8EX5s8mH9pTdYNmgXOiW/ayaGW3M9gExjW4uVlej914S02j7wL0a9aCBmbvDslZF2jLoumVP53nojlX/56XRnhr5OwXTyYWkNUeXsvt4r9Mt+yk1M9oYVv2fl8Zfv1RdjW4timn08MC9GvWcgVnBOcHrqCczm6OR4a1RE/dCfye2FOUtX2qyQH7ecGtUZBKdLCbrYhpNNO9q1LMGhgUURdfrBgBcq43P/qnkad0Da4rGta2etMI31c0oX5JWKLKUPalgKuvCmqJxaXRzsXc0urmYTaOeNTCscv1IlgQi3bJfMf10VmGil897QdIK/0rNVPInaYXnWbdBHkYNx8uzqBO3RrcWe0ejW4tiGg2NLWvUswYGlt3wOA7IvoxZiku7UobjHdStYWn9bFivaF53/3QvdUpkRzSeYTt4PHxb0ZTugfWK5tZIZafEvLk8nU2jnjYwsPwQtyWk0A8aDjlXGw+56s5swhOcn0+qXrB8LSJXa/LGywyHPK5uRvfArZHKkgtFMVnn12jv2LJGPW9gYNnIXGW1SrImO9VNP/216acXDMfbn2Ug3bJ5g8hZa3iUFnZeiecNmUsAfvsAatSBnVfi1qgvDAwsG5mLcUBkRPaN5TgAmTH99DNW+4QbXgPDylz2JGzZx7OM3alwOl/yMKeBYWUuexK27OPWqG8MDOOs5KLIdH1+gXo0pp/ybmXyBip7Zl2/Djy/X15b1ajRvXBr1FcGJg4aSRyQPYLboxtBvZgrpp9eN/30Um18dtJwvEOG4z2+QVGrhzjv8aGEeZaWOCBc+Ramn9rqZvMlqNEK5qf5NJpopnZZG3ErY3nnonHM9FNd5KzFJlC3cKdu2XXduvv8G87Syixa9QbgaWIViR5onGimdQB4ji3tYgB4mwXtMjM05g3uHSPPr/Ao5uanyWnBg30fc36e/oGFlyTsfNFuptlqT+Vr7N+5NKrKgcYMcGvUdwamQ+RqRwzHe8NwyF8CQB67EmYG157LIGwfGN6yfcD+4d4xcniNLNTRiWZ6dX6anLm1GP4VqwXCxfaB4a8/+1r4CvPcVm7d29Tg7B0jp997yf7xrcW52xzD8n45hfqMM6NIDe5TAPCAyBjr0LMB3hVwa9RXS6TVxEFjIQ7I7yhuViUDLtd7+4D9LP2Sb5Divpv+76sPpnXLs6+FrwPA06uMSwfqKbnPvhZyZUHHQYP37Bh38iMzLtcA4Khk4wK9vjyC5UAvt0Z9bWBg+cGOI1fblbTC4wIZi3nBFTzcO0a6Kkjd7edWwlLnv9vFR492sjk54Pk9uWMwe8fIf+G9hoNeD/B24NKo7w1Mh/bUyBsAsEPgcFcedO1hsdae3W6vDvK2AmWp890srY29Y+Qo59jKvqTsAJ6javwKeMGy4NIIDcwK2NGCA1mChyrg7HLI+2bn/TxPHKlMBdWVJud10+WwH0EDs4o4aLQjVxuJA7ILAN4ROINRNLyxia4/PzTmSTuLVQCVbKxfddDArEMcNBYiV/sDAHiwYjsEvN5X159nB9943tRlikv0yxKmVKCB2QS6PIlcbR/1aJJW6LMHNVevhiepjCVDfd7lxz/nTZ7iKF+QzE+TNzjHVlaGgaXxK1vGTDRzSfwrA1waoYHpEurRtKdGJlih7QdF6oRkoOtlDPMy3uny4++wz3fNZF17tctypDMriz93Cc8ZI66xL0834gxVDruhTM3hVMKlERoYAZhXMxEH5DfigAzFwdJ27xn20KvI5uQKlr73kv0XrLfNem9s+u+n2Oe4ubkY/mgDI3OHGpf3XrJf5hlToIgU99+ZFbIWaWvTDWUKaCtBIO2g3beZvDJgBZN+QX/ioPHlv9Mvi+EspaE/wZLdjIxBRi73+9bi3O3JuvYCALww0UzfYollHU5nrVny1y+N0N/50YlmeoL10Om8vSP6/0/WtfMCw/KekOZObLu1ONeerGsH2Nb8+5JPZffDEolbIzQwClguctWY2ehtafppyjGksHFixkRJESS2XHpV0nBf4/y8cDxlsq4tDI15u9hZJH2tmNpkXQsnmvloVCG4NUIDUxxf8KSrG443WETTsbzIuwDX5elGcnm6sdkOGpdGQ2PeoEDcqTKIFODCGExxfML5ed7yjZWC08DEkauJ9L3iBTVaAWcBrniyrt1AA1McXF8QwyFD6qZSLKxrA8/vx/vFF4VLo71jvavR0JiYRmhgCiIOCK8rrfIcTaEYztIuHE/tlVwMzPw0atSBHYzl1ggNTHHwPrw100+fVzSXwmDtW7h+L97qdxng1mii2XsasfYtXL9XJ4ETDUxBxEHjQ4GdkFMKm8AVguGQtwSS1HKpvXJ5WkwjtpzoGfaOiWuEBqZYRJK+eiahi9Ur5s0fiQWKU2WhrzUaGhPTqFOcCg1MgcQBeZX3XJPhcNdYKS26ZT8ncFmuTeXnp/k1EqiDU1q2D2TTSJM7HYQX00+vbFDacj0ORK6mKuU9F0w/pS73r9Ypu7keceRq2xROa00mmmIaTdarrdFEU0yjyfpdjdCDKZikFYocwHvXcLxvKphOLujW8AMAcInzwaV8oGhKG3JzUUyjobHqarR9QI5GaGAKJmmFFwUuMwyHvKJgOrlQGw//UMAjoEvKQgzMrUUxjfaOVVejZ18T02h+mqCBKROsbapIXOG7pp9OGk61qsyxnt4vCly6kLTCOQVT2hTWNlVIo4lmOlm1SoBDY+Ia3Vq8VyOMwZQE009nBU/kLsQB2cNOdpcaw/F2Gw65InAp/d0e5KxNLJ2JprhG89NkD2/tnSIYGvN27x0T12h1bWL0YMrDEcHrBgHgoOS5KMFwyAnBS68WbVwYPa/R3jFxjdYqfI4GpiRErkbd8GmRaw2HvG766fO6NVzK0/HUczH99ALrBMlN0gpPyZ8VP5N1cY32jpHXJ5rp89sHyqkR9VwmmuIa3VxcW6OvZp4ZIpPrumX/kcB1vwkA9a2/dfhf4qDxCwXzEsZwvP2GQ4IMxZ1mPn91R0PytLJw/eEBcY0Gfufwv1yeLpdGQ2Pe/r1j2TR669DaGqEHUyJYhuphVnZShFdMP31Xt4ZFe2BLQ7eGHzD91DMcIvTGZ5yJA/KMxGllhmWoZtJoopm+u32geI22Dww/MNFMvb1j2TSan15fIwzylhBqJNhDLEobAPZFrlZI8SOWRHdJZJtzBVcjV9sjcVpSoUZChkaT9WI0Ykl0mTWarG+sEXowJaQ9tVScOst5mxoAXDP99EptfPZQXlvZhuOZtfHZSZb9meXBTVgh9dLCCohn1miimV75wWuzh/Layh4a88wfvCZHo/npzTVCD6akMC/guqReQTEAPBO5mpIGcobj7WSnomUUvk4AYE9R3hcPzAuQqtFkXY1GQ2PeTnYqWppG3Xhf6MGUFLYtK2v3hH4RLtClFzvBLGdQxzNMPyUst0VWVf1mFYwL3O1HLVUjuvRiJ5ilMDTmGRPNlLDcFmkadbu0Qw+mxOjW8NbaePjnrO2ILBc6YYWUIla46WO6KtusBALrW7QTAL6mW/Ygq6E7xFnlbDNm2lP2saQ1p6K3lBK2DwxvffY1dRqxwk1LGnVKIKwH61u0pNH2AXuQ1dCVrtF7L9nHbi12pxEamApg+kt9fK5IfIDXI1qjn3RNcv+g9ZiJXO1ADvdRAuu11PMaTdb5NEIDUxFq47P7dcs+rbJ/c0HQt3Wzap7LWvzgtdn9Dw/0rkY8nksHNDAVggV+r9H/LHoukqhMQLdbWOC35zQS3U7HIG+FiFwtbk/ZDmviLproVRauxgGxe8m4AAv8vvdS72g0P03sLLk66MFUFNZhoBRndAQ4E7ma6MHBysA6DFRWo8l6do3Qg6kokau9AQAvZOnRXBAzcUCU9MouG5P16mo0Py1HIzzsWGHioHEVAN6m6+Qt28zBHHYwRKHr+MtJKzz++as7GklrrupLh665PH1XI+Nr5dfo5mJ4/K1DOxq3FuVohEukHkLCGSYV0PX7SEnquRSOhDNMKljSaK16LllBA9NjGI43qFv2s7plP1XgTgZ9UD+IA/JB0grnktZc6Su55cnQmDe4fcB+9uGB4jWanyYf3FoM524tqtEIDUwPY/opfXhPihYREoA+tITFh5AumGgWoxGLDykHDUwfwNL8v2045HFWvnGnhDdnzBqcf8KOHHyYc8fFnoKl+X9775gajdiRgw83O24gGzQwfYzppzY7APcYO2y33mG4BVa/pNOruRm5GhqTHJhoims0WS9eo/8fAAD//7BDnqfZ2hPbAAAAAElFTkSuQmCC" vertex="1" parent="1">
          <mxGeometry x="280" y="200" width="70" height="70" as="geometry" />
        </mxCell>
        <mxCell id="mkcyjXhvuMrbdka2cAON-9" value="Github Actions" style="text;html=1;resizable=0;autosize=1;align=center;verticalAlign=middle;points=[];fillColor=none;strokeColor=none;rounded=0;" vertex="1" parent="1">
          <mxGeometry x="270" y="280" width="90" height="20" as="geometry" />
        </mxCell>
        <mxCell id="mkcyjXhvuMrbdka2cAON-13" value="Build&lt;br&gt;Containerisation&lt;br&gt;CI-CD Pipelines&lt;br&gt;Unit Testing" style="whiteSpace=wrap;html=1;verticalAlign=top;fillColor=#f5f5f5;fontColor=#333333;strokeColor=#666666;" vertex="1" parent="1">
          <mxGeometry x="260" y="50" width="110" height="75" as="geometry" />
        </mxCell>
        <mxCell id="mkcyjXhvuMrbdka2cAON-30" value="" style="edgeStyle=orthogonalEdgeStyle;rounded=0;orthogonalLoop=1;jettySize=auto;html=1;" edge="1" parent="1" source="mkcyjXhvuMrbdka2cAON-16" target="mkcyjXhvuMrbdka2cAON-28">
          <mxGeometry relative="1" as="geometry" />
        </mxCell>
        <mxCell id="mkcyjXhvuMrbdka2cAON-45" style="edgeStyle=orthogonalEdgeStyle;rounded=0;orthogonalLoop=1;jettySize=auto;html=1;exitX=0.5;exitY=0;exitDx=0;exitDy=0;" edge="1" parent="1" source="mkcyjXhvuMrbdka2cAON-16" target="mkcyjXhvuMrbdka2cAON-42">
          <mxGeometry relative="1" as="geometry" />
        </mxCell>
        <mxCell id="mkcyjXhvuMrbdka2cAON-16" value="Development" style="whiteSpace=wrap;html=1;verticalAlign=top;fillColor=#f5f5f5;fontColor=#333333;strokeColor=#666666;" vertex="1" parent="1">
          <mxGeometry x="405" y="220" width="85" height="30" as="geometry" />
        </mxCell>
        <mxCell id="mkcyjXhvuMrbdka2cAON-31" value="" style="edgeStyle=orthogonalEdgeStyle;rounded=0;orthogonalLoop=1;jettySize=auto;html=1;" edge="1" parent="1" source="mkcyjXhvuMrbdka2cAON-28" target="mkcyjXhvuMrbdka2cAON-29">
          <mxGeometry relative="1" as="geometry" />
        </mxCell>
        <mxCell id="mkcyjXhvuMrbdka2cAON-46" style="edgeStyle=orthogonalEdgeStyle;rounded=0;orthogonalLoop=1;jettySize=auto;html=1;exitX=0.5;exitY=0;exitDx=0;exitDy=0;entryX=0.433;entryY=1.093;entryDx=0;entryDy=0;entryPerimeter=0;" edge="1" parent="1" source="mkcyjXhvuMrbdka2cAON-28" target="mkcyjXhvuMrbdka2cAON-43">
          <mxGeometry relative="1" as="geometry" />
        </mxCell>
        <mxCell id="mkcyjXhvuMrbdka2cAON-28" value="Staging" style="whiteSpace=wrap;html=1;verticalAlign=top;fillColor=#f5f5f5;fontColor=#333333;strokeColor=#666666;" vertex="1" parent="1">
          <mxGeometry x="540" y="220" width="85" height="30" as="geometry" />
        </mxCell>
        <mxCell id="mkcyjXhvuMrbdka2cAON-47" style="edgeStyle=orthogonalEdgeStyle;rounded=0;orthogonalLoop=1;jettySize=auto;html=1;exitX=0.5;exitY=0;exitDx=0;exitDy=0;entryX=0.588;entryY=1.236;entryDx=0;entryDy=0;entryPerimeter=0;" edge="1" parent="1" source="mkcyjXhvuMrbdka2cAON-29" target="mkcyjXhvuMrbdka2cAON-44">
          <mxGeometry relative="1" as="geometry" />
        </mxCell>
        <mxCell id="mkcyjXhvuMrbdka2cAON-29" value="Production" style="whiteSpace=wrap;html=1;verticalAlign=top;fillColor=#f5f5f5;fontColor=#333333;strokeColor=#666666;" vertex="1" parent="1">
          <mxGeometry x="670" y="220" width="85" height="30" as="geometry" />
        </mxCell>
        <mxCell id="mkcyjXhvuMrbdka2cAON-33" style="edgeStyle=orthogonalEdgeStyle;rounded=0;orthogonalLoop=1;jettySize=auto;html=1;entryX=0.75;entryY=1;entryDx=0;entryDy=0;" edge="1" parent="1" source="mkcyjXhvuMrbdka2cAON-32" target="mkcyjXhvuMrbdka2cAON-16">
          <mxGeometry relative="1" as="geometry" />
        </mxCell>
        <mxCell id="mkcyjXhvuMrbdka2cAON-34" style="edgeStyle=orthogonalEdgeStyle;rounded=0;orthogonalLoop=1;jettySize=auto;html=1;exitX=0.5;exitY=0;exitDx=0;exitDy=0;" edge="1" parent="1" source="mkcyjXhvuMrbdka2cAON-32" target="mkcyjXhvuMrbdka2cAON-28">
          <mxGeometry relative="1" as="geometry" />
        </mxCell>
        <mxCell id="mkcyjXhvuMrbdka2cAON-35" style="edgeStyle=orthogonalEdgeStyle;rounded=0;orthogonalLoop=1;jettySize=auto;html=1;entryX=0.412;entryY=1.067;entryDx=0;entryDy=0;entryPerimeter=0;" edge="1" parent="1" source="mkcyjXhvuMrbdka2cAON-32" target="mkcyjXhvuMrbdka2cAON-29">
          <mxGeometry relative="1" as="geometry" />
        </mxCell>
        <mxCell id="mkcyjXhvuMrbdka2cAON-32" value="&amp;nbsp;QA &amp;amp; UAT" style="whiteSpace=wrap;html=1;verticalAlign=top;fillColor=#f5f5f5;fontColor=#333333;strokeColor=#666666;" vertex="1" parent="1">
          <mxGeometry x="540" y="310" width="85" height="30" as="geometry" />
        </mxCell>
        <mxCell id="mkcyjXhvuMrbdka2cAON-36" value="" style="rounded=0;whiteSpace=wrap;html=1;fillColor=none;dashed=1;" vertex="1" parent="1">
          <mxGeometry x="410" y="63" width="380" height="127" as="geometry" />
        </mxCell>
        <mxCell id="mkcyjXhvuMrbdka2cAON-39" value="" style="points=[];aspect=fixed;html=1;align=center;shadow=0;dashed=0;image;image=img/lib/allied_telesis/storage/Datacenter_Server_Rack_EoR.svg;" vertex="1" parent="1">
          <mxGeometry x="451.9" y="80" width="29.69" height="60" as="geometry" />
        </mxCell>
        <mxCell id="mkcyjXhvuMrbdka2cAON-40" value="" style="points=[];aspect=fixed;html=1;align=center;shadow=0;dashed=0;image;image=img/lib/allied_telesis/storage/Datacenter_Server_Rack_EoR.svg;" vertex="1" parent="1">
          <mxGeometry x="585.15" y="80" width="29.69" height="60" as="geometry" />
        </mxCell>
        <mxCell id="mkcyjXhvuMrbdka2cAON-41" value="" style="points=[];aspect=fixed;html=1;align=center;shadow=0;dashed=0;image;image=img/lib/allied_telesis/storage/Datacenter_Server_Rack_EoR.svg;" vertex="1" parent="1">
          <mxGeometry x="710" y="80" width="29.69" height="60" as="geometry" />
        </mxCell>
        <mxCell id="mkcyjXhvuMrbdka2cAON-42" value="Dev Servers" style="text;html=1;resizable=0;autosize=1;align=center;verticalAlign=middle;points=[];fillColor=none;strokeColor=none;rounded=0;dashed=1;" vertex="1" parent="1">
          <mxGeometry x="426.73999999999995" y="150" width="80" height="20" as="geometry" />
        </mxCell>
        <mxCell id="mkcyjXhvuMrbdka2cAON-43" value="Staging servers" style="text;html=1;resizable=0;autosize=1;align=center;verticalAlign=middle;points=[];fillColor=none;strokeColor=none;rounded=0;dashed=1;" vertex="1" parent="1">
          <mxGeometry x="550" y="150" width="100" height="20" as="geometry" />
        </mxCell>
        <mxCell id="mkcyjXhvuMrbdka2cAON-44" value="Prod servers" style="text;html=1;resizable=0;autosize=1;align=center;verticalAlign=middle;points=[];fillColor=none;strokeColor=none;rounded=0;dashed=1;" vertex="1" parent="1">
          <mxGeometry x="684.84" y="150" width="80" height="20" as="geometry" />
        </mxCell>
        <mxCell id="mkcyjXhvuMrbdka2cAON-51" value="" style="shape=image;verticalLabelPosition=bottom;verticalAlign=top;imageAspect=0;aspect=fixed;image=data:image/png,iVBORw0KGgoAAAANSUhEUgAAATMAAACBCAYAAACsLV2UAAAABGdBTUEAALGPC/xhBQAAACBjSFJNAAB6JgAAgIQAAPoAAACA6AAAdTAAAOpgAAA6mAAAF3CculE8AAAAaGVYSWZNTQAqAAAACAAEAQYAAwAAAAEAAgAAARIAAwAAAAEAAQAAASgAAwAAAAEAAgAAh2kABAAAAAEAAAA+AAAAAAADoAEAAwAAAAEAAQAAoAIABAAAAAEAAAEzoAMABAAAAAEAAACBAAAAAMinJfYAAALkaVRYdFhNTDpjb20uYWRvYmUueG1wAAAAAAA8eDp4bXBtZXRhIHhtbG5zOng9ImFkb2JlOm5zOm1ldGEvIiB4OnhtcHRrPSJYTVAgQ29yZSA1LjQuMCI+CiAgIDxyZGY6UkRGIHhtbG5zOnJkZj0iaHR0cDovL3d3dy53My5vcmcvMTk5OS8wMi8yMi1yZGYtc3ludGF4LW5zIyI+CiAgICAgIDxyZGY6RGVzY3JpcHRpb24gcmRmOmFib3V0PSIiCiAgICAgICAgICAgIHhtbG5zOnRpZmY9Imh0dHA6Ly9ucy5hZG9iZS5jb20vdGlmZi8xLjAvIgogICAgICAgICAgICB4bWxuczpleGlmPSJodHRwOi8vbnMuYWRvYmUuY29tL2V4aWYvMS4wLyI+CiAgICAgICAgIDx0aWZmOlBob3RvbWV0cmljSW50ZXJwcmV0YXRpb24+MjwvdGlmZjpQaG90b21ldHJpY0ludGVycHJldGF0aW9uPgogICAgICAgICA8dGlmZjpPcmllbnRhdGlvbj4xPC90aWZmOk9yaWVudGF0aW9uPgogICAgICAgICA8dGlmZjpDb21wcmVzc2lvbj4xPC90aWZmOkNvbXByZXNzaW9uPgogICAgICAgICA8dGlmZjpSZXNvbHV0aW9uVW5pdD4yPC90aWZmOlJlc29sdXRpb25Vbml0PgogICAgICAgICA8ZXhpZjpQaXhlbFlEaW1lbnNpb24+MTI5PC9leGlmOlBpeGVsWURpbWVuc2lvbj4KICAgICAgICAgPGV4aWY6Q29sb3JTcGFjZT4xPC9leGlmOkNvbG9yU3BhY2U+CiAgICAgICAgIDxleGlmOlBpeGVsWERpbWVuc2lvbj4zMDc8L2V4aWY6UGl4ZWxYRGltZW5zaW9uPgogICAgICA8L3JkZjpEZXNjcmlwdGlvbj4KICAgPC9yZGY6UkRGPgo8L3g6eG1wbWV0YT4KLVLBxAAAOU5JREFUeAHtXQdgVFXWPukNEhJC76EKSAdpiigCKghWFLHX3XV113X9d137qqy66zbX1d21F1AsqCgCIgIiiCC9twABUkhCSO//993JCy8vbyYzk8nMoPfAZGbu3HfffWdmvjn9hFSDRJPmgOaA5sBpzoHQ03z/evuaA5oDmgOKAxrM9AdBc0Bz4EfBAQ1mP4q3UV+E5oDmgAYz/RnQHNAc+FFwIDyYr4KeiRDcThaXyu4jxyU9N1+q8a9DywTp3jZJEmKjg3n7em+aA5oDfuRA0IGZAWB0sn6/94j84/O1snFfmpRXmblSLRGhoXLl6H7y8IzxEhJCyHOP6Lv1YLp7i+pZmgOaAwHnQEiwhGZUVVHmghRWVCLZ+cWyeONe+RuATCrKFJMcr9blV7WEytpn75TEuGingJaVVyhbDmZIYrNoaZXQTJKaxUhMZIQGtLqs1M80B057DgRcMjMkse2HM+UfC76VnRknJTe/UEpLS0Wqq0RFwdUIXkZEHCWrEPyLi4oAMIU7BbIqHDDzbx/IwfTjEhoWJnGxMZIYGyW3TRgsM8YOwNrVTo897d9ZfQGaAz8xDgQUzAgmWSeL5G+frpb5a3dIRUUlIAoyGMZrgSaEcAdcc9zVvj0hUDNT2iYqKat20PSA87/ZflAOZeUqO1tVZaXkFxRIfn6BPDT3a1m+/ZD8adYEaR4TpQHNxDf9UHPgdOVAwLyZBKvisgq56V8fy7xvN0tZGdVJSGKAs6iYWElqHishYREYc4hlShozm8YwMKR7B6WaOmP+N9tTAYKOgyilOVRZAGVluSzbsl+u//uHUkn11oqUzhbU45oDmgNBy4GASGYEj9LySvnZvz+WPWkZELsAWZC0OrdKlDsnDZPhPTpKcnysLN+WKn+Yu0wKIFEZZBjvqyqrZETPjg6RzRg0JuEeECWbD6bjQR3PgZLwOL2iokJ2HMmSh+Z8JbMhoRHsQm3WMS2pH2oOaA4EMQcCAmbkxyff75A1+9IBLlUSGhomg7u1k+dvnwIQi1MSVEhoiFw0tBfCL6LkiQ9WyIFj2ZDbHHIawTAW6uHQlPa2KiJfLywpk7RshHJUVdaT3vAyjoOkVlkhH67ZLrvSMuWRGefJwG5tg/it0lvTHNAccMWBgHkzJz76uqRmZGNv1dK3Szt5857LJS46sp50ROApKS9HnFm2fAwAXLvrsBSVlct144fIjeMHOQEzgS2uUKbOniO5eXkKzLgOyRC+qHyGhIRCzaySMIBpVEy0/GLiELl94vCaeWadVg3pP5oDmgNBzAG/S2a0W30KUErNOqFAJjwiUh666lxbICPfCD7REeFKahrQta16bti4XMWX0csZFxUuuQAqiGCQ/hzgxGNDQsMlMjxMOrVqIXuPZkHFrJKS4iL558J1GA+Xm84fEsRvmd6a5oDmgB0H/O4AoG3qnZWblS2LNqoLBnSXIVAxXdmrDNCqlarwwBizuyjOawYp75VfTJNhKe0kuUWCtIhPkMSEBMSaxcuFg7rLB/fPkIUPzpLHrz5P4uLisB/Y8UpLZPYna+SbHanKhma3th7THNAcCE4O+FUyo6qXW1gsh3KKHD5KSE3TR/R2CUzeso1g1wWS15u/vkrZz0rKK9Q5YxCbFquCZh2S2tVnD5D+XdrKz/6zQDJz8iSkvEReXLROxp7R1dtT6+M0BzQHAsABv0pmlJgyTxRIXkGhutSoqEjp2T65yaQgAloY1EvGktE72hI3BtpS5eReSJxzZpc2ctfk4VINjyolx7W7D8vWQ5lNti/HmfVfzQHNAV9ywK9gRnvV2j1HpBIBrLTHt4qLkLaJzV2qmL64WAIX1VjenKmnV47pL/06tsYcsASgNnflpibfly+uTa+hOaA54OCAX8GMp1wDqYcUAhXzrJ6dJDzM71tQ57f+CQOAXTikp0MaA9huOpAuZchI0KQ5oDlwenDAr0hCaWxHWpYytpM9Z/XqFFTR9307QTKDN5OUX1aJwN4KFWSrBvQfzQHNgaDmgN8cAFQxTxSUSHrOSQdDELDap2NyTbJS4HlE50RcdISEhYUjaLdSKvC8HFkGQbPBwLNI70BzIKg54DfJjFLZcVTDEIAFKRKxYyyy6MyGpSb58Y+KP6s5H4GNxDFNmgOaA6cHB/wHZgCGk0Uo6wNbGQ3ycYi4ZyxYsBD3ROwifPExswMItBrQguUd0vvQHHDNAb+pmQSGAuRLOoxQIcJ4r2Ai7i+/pFSqkIBejSyFMORuhjOEQ+uZwfQ26b1oDjjlgN8kM4o8NKgbFI3A1WCj9NwCqQSYkSJDq1VqE6U0TZoDmgPBzwH/gRl4UVYDFIotQWiO2pdxQgXZsqZaW5TYZv6mJs0BzYHTgwN+BbNgV9m2HkJtNVAISmz37dRK2cxOj7dR71JzQHPAr2BWV7UMLtGMVW93Hs6oNfizQCQLPGrSHNAcOD044D8wg+0pKgJqW40NqgSVZoOFmI+58cBRKUA/OwJYVFiIDO3RQaczBcsbpPehOeAGB/wGZgxxUKEYNTX5i+A5DJawB6q/y7ceUJ5W5mb27dxWWqB9nSbNAc2B04cDfgMzgkSLuBiEPTBFCGWti0sQCuHoiRlIdnEv9LKuT82UEOyNlWeHprQJ5Jb0uTUHNAe84IDfwIzhqOy4FFHTOo6pQgczUW02wGYpxpflFBTLgfQcsA+VNSKiVKOUYJEavXhP9SGaAz9JDvgNzAgazRHx36ZFc8VoVs3YiaTzQIMGwXTBup3ITihWewkH2J6JYo21xr2f5MdCX7TmwOnHAb+BGVnDANQeKMbItnKk9XvT1Jh6EqA/xWiO8uqX6xWQcV+TUFI7qRl6dupg2QC9I/q0mgPeccCvYMYtDkI7N0pjbPO2fv8xqQygnkkv5rc7D0p2cTkUTKQwIX3pzkkjNJB591nSR2kOBJQDfgUzqpoD0WGJ4Q8Ej4yCUsnJL1J9MgPBBVae/WTdHgkBsGI70qNjG+nWJjHgqm8geKHPqTlwunPAr2BGiYxNRprHNYP0EyIVSOhmPmQgVDoKhAcycmTFtv0KXAVFGScP6KYq33JvmjQHNAdOLw74FczIGsZvsUs5waQcrd12HDmugM3fbKtAAcan3l8uRaXlai/x6LM585yBOlDW32+EPp/mgI844Fcwo8TDwNlebRNU0xCefPm2VB9dimfLHMjIlTX7jkG9RNQ/kPX2ScPdCpQNpI3PsyvUszUHfloc8CuYkbUQyGTioJ5wbYYCRKpk9c5U+XLTXtmv4rz8w3yC1z8+WyNlpY4shCQ0Bp48uKeS0Ox2oBwFxzPkrq3rZU12Jkpq8yo0aQ5oDgQTB/wOZkSzC4f0UvmPjOUqKC6Vn7+8SP74/td+cQQwwn/xxr2yZEsqWt5VoYFJhNww7kzpmMwS3vZvDR0Fn6enyQu7t8nZa5bJ1G+WSGYp4tIc1jb7g/So5oDmgF854Fcwo0R0oqhEbvj3Z1KK+K7aqhQVpfLtriOy51h2kzfeZUu55xeulerychWKcQZ6Zd42cThg1TW1ioqR5KgoCUVNtqVZ6dJz0Xz52YY1chx2P02aA5oDgeeAX8HMsJlVlxY5Imhx/Upjg7RWDYP8Fxv2NJkBnueh93Q2jP674XSgilsVEi53ThyiijA25MG8u8cZsnPCdHmwZz/p0Ky5FCOc43+pe2XkVwtkJcCtHBKfJs0BzYHAccCvYMbLZNPfWecOggPA0X6Aqp2S0AAuH6zZ7nNOUBpkM98lm/bI2t2H5JXlW1QruVBUkb1gYApusN+5QQS7hMhIebTfYNl63lS5vUsPqcZYWmGBnPfdMpm9c7Mbq+gpmgOaA03FgRB82f1uzSa4XPzEW3Ios65ayXzN2y8YKvdNP9tn18ure+qD5fLG1xslFuEXBVBzCaBtkhJl/v9djeT3GJehIQTa52Ary4RaekvnFOnZPAFSHTIYcPsaEtlvtq2X7bk56vm1KT3lpYEjJQaVajVpDmgO+JcDfpfMeHmsrT91WE8AAJ+dslZVQ1Wbs3qnHMw64TPb2dyVm+WNFVtV+hRrqKnToXfn3ReNkMRmroGMuyMYvnJgjzy7a4sMXfEF7rdKIVRMSmoT2rSXxaMnSPeYZrC/hco7UDuv+36lUkF5rCbNAc0B/3EgIGBGgJg+sp+KNatzqXghP79A/vThCp/YzuZ/t12e+eRbqSp3GOkpTZFon8vKKzjlgKizibpPygCwo5LbSDS8nsUlJfKHrT/I8GWfy9JMxKiBkqOiZeOk6XJ1p27qej4+ekh+sWVd3UX0M80BzYEm50DYo6AmP4vlBFTz4mOiJAoS2prdRwAuMJ5TQMONKlzq8Xwhyg5D6eqGDPOWpZUkxfXf/WaLPD5vhRQVw9lgItVUBRNY439Ez44NgmY4JK6p7TvJVEhhORVlsuvkCcmBB/M9hGpEYcNDE1uiLV2YXNqhsxzIz5dt+SdkQ85xOBuqZCxAMIyb0aQ5oDnQ5BwIiM2MV0XQYoHG6c+8J/vSjim1koITv/sEHEpR/75zmpw/sHuDgGNwScldOO6JeV/LWyu3oaEv1Ep1Lse6EMUUOM4aP0QeunKc20BpRP0TmLbk5cqEb5dKbgF6bEaEy+VtOsh7o8ZLJRYngA1d/InsKjyJIo8R8vnI8XJ+63bG9vS95oDmQBNyICBqJq+HElcEDOX3XzISwIUaGjVAxtdodGeg6s9e/FheQEyYGlNIpR7W+0PgIzhuTU2XWX//UN5asRlAdqokNwGSxBZyY/qlyD1TRjoG3Ph718bv5E3YwkorCVci/eJbyLpxF8pFnbpICBwZH0GtvGzVl+r1cGQ1LBt/ofRKQOWNsjK5ef23cqykSB3nxqn0FM0BzYFGcCAgaqaxX4IMq2gUos3b1kOZKiLfAB7OIaB9h5pnG/cflf5d2khcVERNk14CnoPKK6rkWG6+vPrVBnngnaWSlgXPIiQ+qqwGESjDURVjYPeO8vY9l0k0JCp31NeT8GDevP4bmZd5VJYeS5MRSa0kOTJKEiIiZTpUz7VQJ/cVnJRdJcWSAKCkWhmH87TFnHfTD0tBRTk6PpXLxW07unU+Y7/6XnNAc8BzDgRMzTRvlZUrbvznB7IxFX0rWVvMRAQiegpjYmKkc3JzNBtpJ91aJypwSEUJn/UH0iUtt1DyC1gXje3rDJirWQRPQwE0g1M6yAt3TJFEVO3gmqEoxOiMuAJf3ZOfJxORunSorFTC0PQkGnFmv0rpI4/3HywMkS0CWM2E93Jh2kGJxP7eHzpWJrZtD0lTZOba5fLx0cMSj6yBvROnSwv0FtCkOaA50HQcCAowI7iwfPUtz3+kqs/S26iUTYwbklqtJKWCbWuAiAeioxKJaqZZGuMYj+HwhMG95cmZ50mL2GgFYj9A0vth31GUH8qWzLxC1Z0pHiDXMam5DOraBo6BTtIusTlgEV2kAK6vp+6RpxFrlk6VEWEdd3XrJX8bMFzZ9Q4XFcrwFQslt7BIuscnyLrzLpZYzDlUVCAjvl4oJ+AsuK1rT/nXkFHckibNAc2BJuJAUIAZr40J4OwqPuPZd2VfZo5Uwh5llrIISg2RAj7M41RKc2EIm7gZSeS/mTZGgVpqVq788j8LZE/mSUiA5cpjaoAl167CHqrDIiQcUttt5w+ROyePgDTmUEnzystk3PIvZAccANVQU+/t2ltmDxim8HNjbraMWPqpQt4Xh4yWm7uxAke1zFzztcyDTa0aezk46TLpFBvX0CXo1zUHNAe85EDQgBn3T8AqgY3phS++l5e++A5A4Yi0N15zdo0GINELqqQxSG/9O7aU311+jgxJodpXDUfCGng4t0p+YbFSRzmXkhdLETlEOkcpbw4RDKmadm+XLE9cM752jRMAtAth7P8B4BUB29jSMRNkZMvWCtCmrloqC48dlgSolbsBXAnwZq4+ninnQk3leq8NHiXXd+3h7BL0uOaA5kAjORBUYGZcC6Wa7/cekUfmfiX7jjEpnN5K41XHvQFgfEZggv6ImK5QSUH3pyvO6i3XnTtYORDK4YV8YeF38uLidSpYluuEYm5SfDPp2ioetwSJAfAcRy+Cg9kFsudIhgoZAWPUidokJ8p/7rhYWF2DI7mwnw388hPJRPwag2mXnD1RnWdpxlG5EOWBmK/55qCRcg1Sn+jAGLDkY9mN2LSrunSXN4aNVWvqP5oDmgO+50BQghkvk9JUWnaeXPDwa3iMsAgbMFMgFh4poXh9OAJsb5kwVIZ17yAxUeFKzeQ6b6/YJI+9t7zGsQDpC4b4WWP6yS8uOkv18YyEykji+Wi3YyrVb179QvYczYaIhnpnUDkTE1vIB/deLu2T4hVAPbd7q/x22waEeoTK0lHnKy8m1+i/eL7sh3fzOtjI/jd0tAK/P2De00hCb988Xg7BEaD2zMmaNAc0B3zKAcc32adL+mYxSjWx8B6GhUEdrKhRCWuWVlIZYtOawWj/j1svll6QxpLRLZ3AQynOMPxnIGWJKmsIwRD/kuKby+NXj5cLBvVQoER8VCAJwY7H8Hx9IYHNufcqeebDlaqKB50ROTkn5O8L1sizN0xSoHdphy7y+x2bpBy1zT5MS5VxrRwdp2ZCGnsOuZuHUbiRRDfFtR27SjuEatBepoFMsUX/0RxoEg4ELZjxamNUXFmYVOAfAYzAo4AMr7GEz7VoQDKyVycVe0YwIhn3BK8n3luGHMxCFXcWDkD53WVjZRLKYxtE4GNYCJ0PTH6PiYxQLzHV6hGA3h6ouBsR50ZUmr92p1wztj/6fraXbnHNZTxizg5D1YyGbY1EoLq/95lyX6/+dapm9EMALW+U/DRpDmgONB0HghrMGCTbAhJXZg47KJ0qfkipLRrAM2vcQFUfzcoewsbhrDw0LEkHAlZCuguTS1ClY9qIM2qn5uQXy4PvLJFd6Xmq3lnz6AiZMaqvXDd+kJLwIkPC5EWkU1305FuSi+R3SmhvLNsoAwFmpA9HnyeM+I+E/c2gKNNjY8y45541aQ5oDjQdB059E5vuHI1auU+HZGV7cvzBUkCqaoAIk8ST4+1DHQgbLMFdgNgvUiTUxxsIUgAUSmOU1m7813xZsnGfHE7PkozjObIXhv+noFo+j0YnlKIo4bWMj5Upw3pjhRB17K6ME5DkypSEGIPkcjOQqRPpP5oDmgMB40BQg1klQulZd0xpaIZgw3uohQ9dMU4BjDPObTucqaQpHhyH9nYdklhU0aGG/nvRWtlxiFIb4sqMf3ixCgGyzy/ZKNtxLAGNwHdWj/Yq9oznyUTaFJ0EFLIMddbZ+fW45oDmgH85ENRgFgaDfve2LSUW3knapAgioZCIUhD/1RkhFXzujLKgRqp2djiueWQY1nDYwzh/x5EcOAWIbMAzSnq4kZSbAQnqBDMlxWEsOQGGe0iCBLZSxMAVlJxKYFcH6T+aA5oDQcGBoAYzSkeZ8EgWITOAEpRBDJFoiNhGzqDI8NA6UhxLDzmVrBRoMfvAQZHKwO84NwGN0qImzQHNgeDjQFCDGbBD0k8UQMAKr5WeyMKOyQ2DWWIzJpQDtDD/RFGZyr9UT3h8YqwCJUPa45okwlQI4tZS2qCEDx/jXzaCaUkEP0b9N4fKqklzQHMg+DgQ1GBGAEk7nkdUqSVWpe3UsmEw69kuCcfgQPwvRJmgDIAiEZEAeesFwyQpoTkRSoEU1VUlqcGDOTKltaPCLY/G+FaonFJTG60ljqEXlWto0hzQHAguDgQ1mMFkJkeykRQOAMND3Ig6odIeFS1cURVUwd4IpI2Nc3g7iwoKZfGmfeoQAlT/zm3k9V9Ok0SAU1hENG5RKOETJ2P6dJSXf3mpRNVkBVRAHf30+13q3FWQ8jq0iFHOBK6hSXNAcyC4OBDUcWZkVRrADG5GxTXazRhm0RpGeVfETIDubZOkW8tmsq2wEEdVy3+//EHO6dtVendoqVKdmGv52QMz0RA4CypopbREPFvvDq1U9Vvaxih8/fWTVbIfNdNYTSOUBRkRp8a+n5o0BzQHgo8DQf/NzMp39LlUQhlEokioeQlIY2oooj4S9q0HUDUjKsph48qHdHb/G4vk+EnUJKtRE5PiYmRU784y/swUVck2KsIRzU8j/9LN+9CibouSCsMAYH3aJaKjVF8lpQXf26h3pDmgORC0YEbpiJRTVFoHQKIALAkosqhEJxfvH1XB4QisvWRoLzWV6+1Oy5Qps+fIqp0H1ZGOXE6GrTl6DhjLPYmGKPe8ukhK0FqO64RFxsjDV43HPrR+afBI32sOBBsHglbNNEInsk8ilahGkiIgxWLH8bFo8uYGrnD+b6aPlUM5+bJmR6oCtbyTJ+VWRP8PR07nmF4dpRPi1aIgxeWhztm2tCxZtiVVjuTkOex0OEcU6pP9bvpIGYpqHO6cM9jeYL0fzYGfCgeCFsz4BjAsIhdgZlAIAma7tm5RmxBujDu7JyCy5v9Ld0yVm1GSeyO6N1Wh0kUlapythXS2ZuchlPEBC4hSsItVVyG6H4sRBCmFxcAp8NtLzpJrxw1ydgo9rjmgORAkHAhiNRNhEYcyhB5FhzkeHIMnk12aagQ1t1hIQItB6etX7rpUHr/mPImgXQwAxjUR14/yQsi1RMdz1ZoOIKaADMfExcXKS7dfiGR2DWRuMVpP0hwIMAeCVjIj2KzdnQb8AuQY0fwAm4FdPW+q6wC0CLlqdH+ZOLCHvL7sB/l21xHJLiyVwxlZymZW930IkbYtmskAnAun1OplXeboZ5oDQcmBoJXMmBu5ZjeagZjShyhJMUbMDXNZPWYrTRLIlAB72z1TRkNSmyYT+3e2XSsETU1mjO5b08yk3lJ6QHNAcyAIORCUkhlVvUIUTdyZdhwGLEeOZShUzNYIljXHmHGegxyVaA1vI4GLdOp1kfziMlUWaOOBY7IW/QXWo9UcxxhDRlLHcDk8GNmzXW0PAfWi/qM5oDkQ9BwISjCjMJZ1slDKQ2icR8BsjarXuZWj+S9jzBhOwXva1Hhj4xLel6FFXQkS0+k8OIhUqF1Hjsvm1GMARgTHotQ2wTEEcw1JTb1DNSAWgmDbtkkt5MlrJ2jVMug/unqDmgN1OeA3MKOUpDAD5zfCLupuBSmQkJIKUWLnJGLLtrC7OaWmGumLpa2zTuTLA28ulkwA3YmCYiVZVWBRQBOOFVWTvxxgVlpWJuUo16NAUFV/xbmVBEYvpRo2llVPGG9WFRoh4/t1ltnXTVQeUGd7tO5ZP9cc0BwIDg40eXcmYhFhjGWqGb+VnlsgR3NOylEUOswuKFUS2ImCEskvAjiVlAKIKiFdsUw2GaT+mDgFRZIleSCVOcpoO0IoiFAKpEzTlYrJQRfEahysmTYIMWQzRp0h08/qq6Q9XeLaBdP0S5oDQcoBn4MZVT8DDAhan36/U912HctVMV2UkKpR0ZXGfKv0Y9i4HDIcoAzgRHXQAWyecVDZwGoOoS3N8RwSGG1wYWhPh4FBnZPRKHicDE5pp0HMM/bq2ZoDQccBn4AZQYjARDXx2x2H5JO1O2RLWrYcTEcDX4wb6qIBUkrgMklNDYGVA4gcvHMY+Q2UM/FTiWYOKZDxaAywNZCQ4NkOBR37dGwjZ3ZuhVtr6YmqGu2SmiuJjqtYgdW0sn6oOaA5cBpwoNE2M0piRSXl8BAeRpWJ1UIJrLqyJpK+npoIjphUQfLHwDQFJkAtB6iwHj8kKOPFWkaisQgbiSAINhJdyJlMzia+EagkGw7bWGQo0p3wWis0ImkLz2fHlgmSguoZPXBrjbgxQ2LkctxGveVrz6MfaA7U5cAGtBykJ9xKQ1Lao2NXW+uwfh4ADngNZoY09v2eNHlwzleSilI5BAeGOlCSMmOWQ83jqwApXiQi8JXkxBFITWEYjUfyOBPI2RGJRvzNcABgNc7GemFyFvIo75kySs1rHhOp+lzScB8GKUzd1zxmhQs85FE4G21rDrXXKnmpKZymSXPADQ6s2JYq/1iwut7MX18yWoNZPa7UH2CkQVOXz/IazE4UlqBb+Fp5d9U2KYbhvgY6FJDxUggeVB9DIT2FsLBhcgvVnKQzaox1a50obSAptU5oJkmoI0ZwioGERSmL9PdPv5Uth7MBdI7mIQSlK0b3UxVg1YSaP7XqqQMnMVrXDqdUUrOOaj4Yjxdt2CuHsk5YRkVG9u4kZyJtypdED+2732yptySlxVsuGFpvXA9oDnjCgc3IO/4SBUgpQe5Lz5GZ5wyQuy4eie/SapmzcrMqBU/b8AWDeqCRtedZNO7uhZraml2H1XdrEyTZOffNUOmEI+9/UYVMsW5gV5Slp7Y0AsUeRvfphO9/lLvLu5znFZgxluvulxfK6l1I1FZBrQ5rGMGF2MFuRhFR0ZIUHSbT4CG8fFQ/6YYLMBMvWkl3gEHHMQ5ZiSEYayHtUVU1KAoqJcV5K9XBKXW4Yw3rPGfP563agioZB+q9PLxnB5mLN8GXxA/UM+jLaaXTDcyoav3hrS+tl4GqIu3l8Znn1xvXA03HAX7f6GB7EUIF4ynNZDTeoUTEPrG8fYf0wBe/+B5FSJPllwC6C1Eey5e0YN0ueRafcVVQtWZhfs9JvCtG/Cdf4+2b7Qflta82KA1rxtgz5YErx6nHNYd5decRmBF8GFpx18tfyJYDRySEFWBr8INfymrYrZqhpdv15w2RSfgFYGOQiPCwOrYqY5fKflUHjRwXXITI/wyEbHBZBs+GYU3W3qcKSoZYDjGW8+n993uOyLZDmdIPjgJfED9Yb3290RdLBXyNQthHGYBsJdopNfmPAywnf+8rC2Udslk8JQLfXf9ZAKmos/z5pslKS/J0DfP80vIKue/VL+Tz9bvNw249pmC0A3UGI4ETjSW3czMJZHlQlX77xhLZmnoEwHIKyCiJhYdHyNVjB8iiR26SX8G21adjK1VLX4GWm7skUFEdy8rLr5HWCHDV0qZ5tMQAJP0BZMZWX/vqB+Nho+8Xb9iD2Lr8Rq+jF9AcIAcoHV/y5FteAZmZg9+iBNa0p94GmNT/cTLPc/WYP9S3oT6gN0BmrHvP1NHGw0bdewBmIg+986V8tysVnkZHTX6YqKgkSruWibLsjzfLIzPGS3J8jNqQZwqf4xoIXOv3H0WF19JTlSzgLBjUrQ1q87u91UYxxDh4ARqZGG3mjDFv730JjN7uQR/34+AANYbr//q+0GbtiugUIxml4J3Npfo567l5ciAj19kUl+N/mf+NrEI4VkPUAnUF2f7RKtzQPk0J0RfklppJkFm9+7As385NKwRT56aRf2jPzvKn6yaocAirx9DTDfJ42gCU7mpCw3P7pfg9qJXi79vLN8ndkDIbQ/zwrdt7tDFL6GM1BxQHCGC3QwpiEQY7YhGGG84bLBNQ5ooNfUh0Alw5pr8s2bhX/rdkvRxm60YLcd1bUbz0kwevkzhoQO7SQTjPXv5yve10Ch8zzh4g0TVOvaUQdkiU5PYey1b7eQVNhu6/9Gzb470ZbBDMCGQFyJe8538LlNfSOAlVy46tW8rfb5ksreCVNGGPMcWje5wGvzbFQtG3ErY4rkepr0VMhAzt0b4eonu0uJeTCWZ3Th7RKH1eS2VeMl8fVo8DD7+zVDXFrvcCBuhkewwOGBYitRIjB2adO0iB2mNzl9l61VMzT8jsecvliVkTrIc7ff4ywJEOBiuxrP0bv7rCNiKA6YN0QPB2C/rX2u3Xup67zxvU3SgtEdXzivlrAMQBEWhio6Pkv3dOUeEVjQUyrknQ3IaGu+XVYWp9jjkkv061fSw55k9iJ6fP4KHxlqimUl3VpDnQWA7QKeXss3gjpLFnbpzUIDCwH+xT110g14+3r54895vNyvHl7l4ZCmJH//n5dFsgs871JZBx7QbBjJM+wheSga0OMAN0IQr/unMHKm8lX/cFUcenZ4axZZTICJAsmD0KYRKBpNeWeu8IoGRHddVfRAn6GBL4SfQwldv8avprL746D9WS/OJSyUUxAn/ysrH7p8RCjyM9h9kostBYsgvY5ZoMiXngynM9Wv4PmG8Xa0bt6F+fr3FrrYwTBcKblc4bkIKuaIH5ztaXSS27YxNcdjYyS2W86FnnDMSYL2Qyh1RGKez7/emI6GcpIETtA9xCwqOB8G39bi8zs2CrsnkdqRewa55j99iwudm95ssxfsnnrNykJEB+cSYM7C4v/XwaqvSmyR2wrzAHldkT144bWC/Wz919THr0NQUmnM+6cXbEQMkR971Y5yXG6qW0rRtfWGeCzZP96bkwNRzE7bDqAXEMXmAjVonTWc58EII/Jw/pJRchTopqS7AQAYxazPvfblOxkgwzMoiBoZeOPEOpVh1bxhvDbt0zCJbmFzv63RXneMwDRuL/HsfNePbdeksuxv7peW+PvGVXlAWtxY58Zcy3W7uhsQbBbO6KzarsDtOOSKzJfx2afNDYCPzxCRHI+Ou1ef+R2nQoarQxYdXSo11SjZzmk1N5tcirkM6G9fDs14auaqqpTUnv4L2Z/f5yMX9pzOejZLYdqjtvvAY2O2Zga0MfVPMafMzraMh7xnNZvb/OgM+6PsHq07U7lTGZDhNXlA5p4Isf9qgbM0X+estFbqk0rtb0xWtfbd4vD7y1RAWn2q1H6fKNZRvlAwDdw1efpzJa7ObZjX383Q67YZWpYhdMbjvZMsjP8wj0lWWAupkoqPB8P7twhHm43uNKvN92xO9yoMilmklVZRV+cdmejcSNMrn76rPPVI99tWl+mD9cvVVKKx2ZBOpcqFs2Bb+8zWCbCyB/1CUuRtqTp3FijVFPG+IrwevW5+fLQ29/6RTI7NZYtmW/XPT46/AYB48dj2rxlU/PVQGgDQGZ9ZoYTnD1n99VKTzW1/z9nD8YDHNoiOiJ/L/XF8mzH9XPBnF2LIHSjqYM72037PaYs+Od2cLMC7eCMGNHdgHVdvOaYswlmOXDBpMDw78RG0JLVqfWSdKuRXNlsPfFhmj4J2i+C+OjOYWJ5a1vnzgsIEBGO4SZCLZv4lfVXWJ/gS0HmSh/iqxrnnrFs0cEspv/+SHSsOw/4A2txr4Hv/rfZ1CFtjY01S+vZ54oRFGBdK/PxRLpd730qUqV8XqRABzItKKnIFU3RJSInQW1ThzUs6HDXb4+abD98Xw/+DlxRfSQMnbMSp/DYZbpBqhbj/PFc5dq5skiVIAtpKoE2RP/aZDvlBRb07XId+Ikf2GPF1UoaY/gxuYl3dq2ki5ISA8ETR/ZV3lW+UUxiJ6eu6eOatBjxPl2Utk1SPwlyDWW7v7vZ0LPlh0xKNFQhzsnJ8ikwT2E1R6YE2el372xGEGMMXL+gO7Wl+o9/+B3MxEu41ArNiCo+f9eX1xvzjCEzzyFkuNm6oQ9NEQsn3PThCFCN79BBP5pZ50hY87oDJXYYV+iqksAZ34rHR1mouo5Z8UmuXlCYBP2mUTNxOk+HVur4PEclHZfu/uI0x8eXjNV/1EIHHVGzoCsA+xuLZs7AtSdHdvQeDJS0NhUm2EZZuKPNyUsV4Z82ipps6Spw0yUPBmz9to9l0sSPl/+JJdglnb8pIrGp5oHLFOVYvt1au3TUh5UXVcg6bSwCCI6mEgiMwd0SlaPA/GHxtopw/rUkV6YZvXh6m3KkO5qT1SbFiF9yUwUyd0BDfMxdo+ZrG4nkTGv7d5pY9SX2TCIM7H/hTsvEX6hnv5ghTJKm9ckq3+P1LRFj3ZQkdnm16yP+YE3iLm5dhQTGVEbqGn3uquxey8ZI19u3Kd+JB+BPYkOCyvRzkcnRnJ8nPz8xU+sL6sqDYEEs6vGngk701n1jPG3TxyO9+yA2rOdN5aA5grMGGBqR306tLIb9nisFxxEVjDjIruPHncJZpxzKzSnD1ZvV5oVnxtEc8Hlf3pHnr3xQvy41tVyjDlNce9SzTwM13IoDP4GUWKid4xg4yuiB2jeqq11jPzsW3nRsN4+PY+n+2UJFSu9jiz/hi6dCeUMJzDTVYjAZp21xhBB6SkENVqJ4PUivJe34YNlAJl5Dn8dn75hktw3fax5WD2mwf6Zj1bUG/f3QDQCPf+HjvPzH7jWFsjM+5mIAgZ2v/hWtd58jD8e0yFmx3+ee/yZ3Zwa1OmlNGsA1r2m14TaWMc99RJbjzeed2516ofKGOO9EeJjHrM+7oJj77/sbOuwen4oKw/2zLm2WoHtAT4YdPkN4wUZ3gklncGOxeqtSkzzwckJiks27ZXD+LV3NCihkyFUqbJ08Rq2Oh+cyuMlqP70hRRqJrrIV25PNQ/VecwP5dyVW+qMkW8scdJYIkjaeS1/heKA4/p1bXB5eqem2hiM56/ZUc8L2eBiTTCBX053KieQn3a15mh3DZStxh12XD9+sK1Gw327Mj8cP2kfo2Znr3JnH9Y5LWtyqa3j7nriGbDLFCo74g+/Ifg88OaSenZku2MaM+YSzNLRkKSWsDGGZ5CJ/ED5gmgfm4Mvf3UFA2UdxLHrxw9164Ptiz24WoN2LivZ2cOMOfPh0raGMIzr101o32gMUT2xc0BQ9boVKSHu0oNXja/HV65tBWB31wvUPPZusCNKA8FK/N4MclJe2y5f0riO4rJTsWrGGO99VdCQ0QJ2VOLkvHZzH0aBCVbcdUU0vUxHhY7r//Z+vXAQV8d58ppLMMtFriT1KiIs0YZiNG0jhrTmyYns5mbA67HloCOuyFDMmjVrJudC0iCoBZpohLYm3i6HQZ2BnXb0uk3ZIDtAtDvW1dgPcBxQzbQS13ZHmjGOo8GXQbVWsrPDWecE03NnX0B2Awtm6t62pe327CLpjYksIW9HzaIj7YY9HjMSwa0H2tn3rHPMz5nQ/ta9V0rnVq6dPqywcc2f34MN8VPbDALzmp4+dglmxmKGJEZ8Ua3ajBcacU/v2POfrZEiNOw1iCpmr9bx0jE53meAaaztzT2B7JIRZ9Q79PVlG+qN0fax+2hdYy3d1/RWNZacRX/Tm+QpjbAxrtPeZKfCerp2U82nDZK2VeP3zVlZm2C+BvKGBUbtiAG1zshZ3Xx2QvMFOQOtcPan9ZDoyPjikRvQvvEc27AN83KU1KY+8Zaqfmseb8xjl97M1qjwqnRKgBhjzGjXplu8FbQmA+C8OTn1aHppPlq351RttJqFmDcWSFuZ9Xpmjhugaqibxz9AjNZv4D1kdQCDXltaH+BoK3NmFDaOc+d+k00cFt3yXWtCVwhGdpKb3dqM67ISgYLvx4Cuge8yxFCEhcieYKzTHvw45CLOinYl0m8vHauqmLD6sB2V1Myzey0YxmKjI2y34QxQOJnOETvyFXAXlZ4SJszncSaxmefYPWYyO51R1BpeQXmgMBdAQQfUTf/4UF69+7IGHT9257KO2XOqZlaHlqdsEwSgsIhIZWTll8iRCm5dzr3nBKu532yVitISaq+OsA88GtWnS1B8ocxXQScAv+TmwE7Gbb2H/gGGvYq2mq+27DMfpgCZdaR8QXbGWLPKwgJ5KxHe0hjyRTJ0Y87PIgNPvPd1o4zErryCjdmbr451phq6SvtiLKAdZfsoVc7Z+57UyBg2Xqu5FqAzAYU/VHe88LEseexGlBKzzyqwu367MfufuJqZKmi1RrY3AHbfsRy7ddwe43Is6vbmsh9wDNOXMEBIA1DOGNPvVIVZt1ds+onXQjqzEvPsjBCMN6B21rCpdtq5cMd7mgNZe7DlQQ5+wazUpkXj3njreqwlFyj6y/xVKum5seEVFU6S4AN1XdbzOpMorZ8d83FtUCvQjsxNQ+xed3fsSLa904QmEl8Sg2id9dSgms0fssaSSzDr2goSGER6JYUBc6rQMWnDAUSxE3+8IL5p9M7cDzdtqEkn5zn6tktU9iWj3K8XyzfZIQygtXqPWN7FiAFilL2V7OLUrHPcfW7HbjaK8SV54kjw5Xn5IX5h4Xe2S1KVZrAxg2XZTcjIbrCd/CMddBZP5iyY1lM27HEinBiVaj1dz9l8AhkzSVhE0o5YmMGZlGg3327MpZqZjA9Ts9hYOZmPGlkQnoh8u9NPSDFEw1jl1bRb0vkYpbsvEVe2gXXLTJ2dIhFQ+sS1F9SW2HW+QmBeod2C5VsojZnJABkjlsZ4jRLZuP7djKeNvmeajDWJmRkJviRnxmlfnsO6FhOoWc3DSgxjePSa8+XiYb2Cyn5q3ac/nrMxkB0x3YjmjsYUOGTq0R5E+tuRNcbSbo6nYyylzSKSVKs/QZUUM/E7tHjjHrkGpba9JZdgloAPVQLKVuflO7629GTuO5olBzNz6wWUNrQBqmS0Oz303nKoZPDEANgo4YVAQmPN8jPwpvkq5KOhvXjz+kxIB1Ywc7YOU1uc2QicHeNqnCEVVjJX8fjn7VOd1hmzHufsebyPGrE6W99u/G8o4WOlWHiQ3/3t1ar0k/W1n+LzdonNEageX6cXJfnAkktfI1e1Mb0vGZJjmErMvKU0aPeZM89pzGNmDVjBjOulZtTNEfX0HC7VTH6wxvfronIyjYXJxCeRVuPKA2PMNe6rAGS5BUXyILo7FRuJ63gxBHFrbRLj5bdItQlG9dLYP+97tmvpVp4ZQYzpS74ku4h35s4ZXj52hGeKT2NuzkIAfHkd5rVYSNKu5M+N6LnKGnaaTnHgHCcZHp950afy1Koin6/bbX5a+5iB3k1JBGimf1kp62R9T7t1jqvnLsGMB7LpQCglqRqqZsdxVIRdgC5K7gS2Mp4sB0B20R/fUMmrRsUy2uFCQsPl0avGqQh5CmrBTjNVdV3Xuzx/YEqjm6paz2D3YWY4xVInda6sxwfjc2tMnrFHOk401eXA1BF96g7UPGNVW2+zHuiEW7q5rgfeOAmDxU9HahDMiKLTRpqNdtANUaf/aXigjC8TJS8zsPGxYU9iw9KZNX3+CIQGUb28YlRfGXtGF2Mo6O8p0jeUE3eNG4Dn6YUOTmlve16mVrnyhHl6HnfmO5OgjffbnTU4J+ME7LA2ZPeLbTPtJzU0vEdH24ok/EH76yervOLFXz9eZdtZiVqAnSbg1UmcHMQYOTspzJnn1sky9YYbBDN+WW5EkmxkFKOXT8lPuScL5FevLpLnwMy96dmI5K9Q+jd1cBoWd6Dy5p9Qe+qWFz6VVLxOIKMDgOuForHv2X27yZPXTghY56V6nHBjgB6/y0ebgb3uQczBPLuv78GZhlO7ZF4mKL+9vK5Tou6O6j+jmcATE4F1BWexUp46JCJM3mzzORoT+Mpr+zESvzd3TB5ue2m0PX2IMjyeEHsUOKs2/POLzvJkKa/mspKt3Y+wq/pp7pzIpQOAC5CR7HH38BVno6P5UmW0p9zFfyUlxfJvuNXfXLlN4sKrlXpF9TEdUeYF5VVSjBplwDYQ/tTgYDjKbrfHl/4vN0xU0lwwG/25cysx5MJcSND8OsuJ+9Lwb16btiSe11qYkH0QGTbijmpAleTu/y4A4HaV30wfY17e7cfOJKf9qChCScFd25uzYNAdh7OUfdLVhqgi2VFmnn2tNbu5p9vYpSgYyiwTlue20h/Qe4ChOnZVUaxzWd+f5dbtiD0BWGLJXVqCGnR0FAxGgxl3iQ14GORtJX6GRzWys3mDkhlPyi/o5aP6yzVoZMI2cyruDOMEOgJVYaGj7dTm1Axh6k3GiZNqzBGyoNCMs2EjC5NhPTvJPHTtiUee2ukGZLxaZj/YFdNj2tKVo31r+Of5DGLq1O+vGGc8rb0nj+99ZaHcgwq0dlVJ+QvIYFRWh2WXJT5+adFa2y9F7aIuHjCYkg4HKxFkWTXEXTqjk33IAdvz2f1qG+v+Z/H3quGG8dx8T0D9sRK/gwxrsIsHpKTNUuj3vfoF0tLsecDPBufws2InmdPZN/v6iR6xjw2ur3h6jkx4+FXV04CagivpmFkeVz07p55nlie9GdWGGxNmwjUalMw4icRf3MdQ6oMxYW+jVG5FRbmK1sd3WElYjlkGcDme8S8/mCzwGI6crYuH9JRnb5isxhxAeGre6fToOXQEYqUDQ0phRVdSY9MxGuIBJT8G6For2fK4Bai9zhtj3FiuukVcDNT9MngMM2rbxBnr0xRw/2uLVDFEdyUp41jej8APkp3xmB23aT+9DLbQhtald5j2WGsRQH7gb0GPA8aZmSsw0PvJbkyL0FzGGf2w75iqzca4vB8jMXzpjzDNsCGKHX20ZrvwxqKJrHN3CRwHfP4c7GPmUB7rsfwu/vmmyaqEtvU1Z88JiBv2H1Mvs+w9exrwxtzMAV3bSOfkFijrHSu/njZaAfDlf5ojtJ/bEUNBjNRAu9fdHXMbzIwF77/0bJmMRgiPzv1KdiMupKq8zKRaGWBGka0aKmaIhEKt7NshSR4BEPbr3EYtczoDGS+AIGYAGZ/3am9f2oWv+Zr468zeDKvRNcuO+KF19cE1juEvMX9FGwIdY775ftpZfWzBjKEiv39zMRp1fA1VMVkl4t90/hAZ68SOePuk4fIYPkdWYpml8Q++LFeN7S+z0VeAwbW3oQeomUaiQgNV0jzwwiBKqextwI7ap/tnzLgm6/0VsNkWQgp+/N1l1pdqn1MNJ8CQWK7K1eeBEt/s6y9Av4ietce784Axo0ZokHk+x9ijwuhTcdeUkQrMUhGbakcM1v7XHZcIP4+NJY/BjMZoNpyYh8BGBt2xUmxqdoEcR22y4ppyPrFRkZKML3x31DZiU41z+6f4pHpEYy/2x3A8DfCvoMoA1QVWl/CG2GuRa3gr1vODz3QXVt61I3b2+QGNT0jscD1WuthNU5UVKGWygbAd5RU6shys5W4ofT6DUuCfIjzo2Y/q219+rEBm8IjOIDqbKKFZi4Eac9y5Z7rYn2+6UOxCfxo6nk1kGkuUzPk59JUw4DGYGRfAFB+GKkyG6sgO5GwKagRkEO2Vagkd9HS0ixnXGKz3tJs8f/sU1QiXuY1WVc3Zvnkci+hRIuKPkrdEaY5qybXPzWtUHTTugd3X73t1ITqB28c8WfdIA/UTsyYoFeaOSSOE6qc5mvznaCryUyAW2Vz06I0qNIONhV3Zqqz8IN+ZpUJV1K6fgnW+3fMp6NHBH1Z2y+J74Anx83M10pbYl8LO/urJWua5XoOZsQjBKiKMN++/HMZa+t4zDvCH5FzkgFJCob2M9iZrGRz+sNAbzWBUfoCYGuMLYlmkefdfrT7Mq1CYkp5Mb4hfiBd/Nk11MHoH7eIopVlrdTHVisnmVLHMNdcogT1380WqJd3zn32nrs0Tz5o3+w2mY+hJfHLWBShZPQbOl+2ydNN+5YCzU/9oyxqI94xB3fSM+sKuyM8ebwQzagnsjs4adHa19fg+83NIkwMdZU1hXw5BgKth6Aqm90nvxQsO8J2klEY7Eq2WzQAC9D429Q8NwecISlYz1oygRs8ubSBsC8cvHAHVXaLdizXxc1EmPD4mWpxVjbBbj8d6ci67NU73MfKf7wWlcKpxtJcxsbsD+o96Yx/1hh/8HPAzSNteLwAY3xN+Nj34GHhzWtFg5hXb9EGaA5oDwcYBrRsG2zui96M5oDngFQc0mHnFNn2Q5oDmQLBxQINZsL0jej+aA5oDXnFAg5lXbNMHaQ5oDgQbBzSYBds7ovejOaA5oDmgOaA5oDnw0+XA/wMZfeX9WV3B0AAAAABJRU5ErkJggg==" vertex="1" parent="1">
          <mxGeometry x="670" y="10" width="110" height="46.22" as="geometry" />
        </mxCell>
      </root>
    </mxGraphModel>
  </diagram>
</mxfile>
